<svg width="800" height="250" viewBox="0 0 800 250" fill="none" xmlns="http://www.w3.org/2000/svg">
<rect width="800" height="250" rx="12" fill="#0C996E"/>
<g clip-path="url(#clip0_2501_162)" filter="url(#filter0_i_2501_162)">
<path d="M780 207.84C779.921 203.938 776.705 200.778 772.695 200.778C770.79 200.778 768.765 201.441 767.534 203.587C766.582 202.183 764.914 200.934 762.175 200.778C761.976 200.778 761.818 200.739 761.619 200.778C760.15 200.817 758.761 201.52 757.927 202.69V192H754.076V205.226V210.259H753.798C752.171 210.259 750.741 209.674 750.106 208.191L748.756 205.226L746.771 200.739H743C743.278 201.48 744.469 204.172 744.866 204.992L744.945 205.187C745.58 206.63 746.335 208.425 746.851 209.674C747.526 211 748.836 211.936 750.344 212.092C748.836 212.209 747.486 213.107 746.851 214.433L744.985 218.92L743.159 223.172H746.93L748.796 218.92L750.106 215.994C750.741 214.55 752.131 213.965 753.798 213.965H754.076V218.92V223.172H754.195V223.211H757.927V207.84C758.046 205.967 759.634 204.485 761.54 204.485C763.485 204.485 765.073 205.967 765.232 207.84C765.232 207.879 765.232 207.879 765.232 207.918C765.232 207.996 765.232 208.035 765.232 208.074V223.172H768.964V208.074C768.964 203.353 776.149 203.08 776.268 207.918C776.268 207.957 776.268 208.035 776.268 208.074V230H780V208.074C780 207.996 780 207.918 780 207.84Z" fill="white"/>
<path opacity="0.54" d="M754.036 210.259H753.759C752.131 210.259 750.702 209.674 750.067 208.191L748.756 205.226H744.985C745.62 206.669 746.374 208.464 746.891 209.713C747.565 211.039 748.876 211.975 750.384 212.131C748.876 212.248 747.526 213.146 746.891 214.472L744.985 218.92H748.796L750.106 215.994C750.741 214.55 752.131 213.965 753.798 213.965H754.076L754.036 210.259Z" fill="url(#paint0_linear_2501_162)"/>
<path opacity="0.54" d="M772.695 200.778C770.79 200.778 768.765 201.441 767.534 203.587C767.534 203.587 767.852 203.821 768.408 205.265C768.725 206.162 768.924 207.099 768.964 208.074C768.964 203.353 776.149 203.08 776.268 207.918L780 207.84C779.921 203.938 776.705 200.778 772.695 200.778Z" fill="url(#paint1_linear_2501_162)"/>
<path opacity="0.54" d="M762.175 200.778C761.976 200.778 761.778 200.778 761.619 200.778C760.15 200.817 758.761 201.52 757.927 202.69V207.996V207.84C758.046 205.967 759.634 204.485 761.54 204.485C763.485 204.485 765.073 205.928 765.232 207.84H768.964C768.884 206.63 768.209 201.129 762.175 200.778Z" fill="url(#paint2_linear_2501_162)"/>
</g>
<g clip-path="url(#clip1_2501_162)">
<path d="M300.442 129.39C300.442 115.358 309.413 105.489 322.173 105.489C334.934 105.489 344.047 115.352 344.047 129.39C344.047 143.427 334.935 152.731 322.173 152.731C309.411 152.731 300.442 143.002 300.442 129.39ZM287.121 129.39C287.121 150.094 301.703 164.685 322.171 164.685C342.639 164.685 357.364 150.094 357.364 129.39C357.364 108.685 342.782 93.5409 322.171 93.5409C301.56 93.5409 287.121 108.411 287.121 129.39ZM219.119 94.3735L246.602 163.848H259.503L286.984 94.3735H273.104L253.194 148.009H252.911L233.001 94.3735H219.119ZM165.698 126.886C166.538 114.1 175.092 105.489 186.73 105.489C196.823 105.489 204.396 111.882 205.518 121.471H182.242C173.97 121.471 169.481 122.443 166.121 126.891H165.698V126.888V126.886ZM152.379 128.97C152.379 149.675 167.102 164.679 187.429 164.679C201.171 164.679 213.226 157.733 218.414 146.752L207.198 141.191C203.274 148.417 195.701 152.726 187.429 152.726C177.471 152.726 168.5 145.221 168.5 137.995C168.5 134.245 171.025 132.574 174.669 132.574H219.113V128.825C219.113 107.981 205.653 93.5293 186.307 93.5293C166.961 93.5293 152.377 108.4 152.377 128.964M114.243 163.84H126.863V121.189C126.863 112.019 132.608 105.487 140.604 105.487C143.97 105.487 147.472 106.599 149.158 108.124C150.421 104.788 152.383 101.457 155.326 98.1212C151.96 95.3439 146.215 93.5332 140.604 93.5332C125.182 93.5332 114.243 104.928 114.243 121.184V163.844V163.84ZM53.2554 117.857V83.9475H74.0056C81.0144 83.9475 85.6438 87.9766 85.6438 94.0901C85.6438 101.036 79.6161 106.317 67.2789 110.346C58.8659 112.984 55.0825 115.208 53.6784 117.851L53.2554 117.855V117.857ZM53.2554 151.901V137.729C53.2554 131.476 58.5839 125.362 66.0158 122.998C72.6074 120.774 78.0713 118.55 82.7007 116.192C88.8693 119.808 92.6528 126.055 92.6528 132.588C92.6528 143.703 81.9957 151.901 67.555 151.901H53.2554ZM40.636 163.848H68.6771C89.9915 163.848 105.971 150.649 105.971 133.141C105.971 123.552 101.066 114.94 92.3708 109.38C96.8593 104.931 98.9623 99.7903 98.9623 93.537C98.9623 80.6171 89.5686 72 75.4099 72H40.636V163.848Z" fill="#D7FEC8"/>
</g>
<g filter="url(#filter1_i_2501_162)">
<path d="M642.34 70.6336C642.34 70.6336 646.019 74.9766 651.385 74.9766C654.758 74.9766 657.567 72.9342 657.567 69.6111C657.567 62.0502 640.143 63.2256 640.143 51.9833C640.143 46.5651 644.904 42.3248 651.691 42.3248C655.525 42.3248 661.966 44.064 661.966 48.9684V51.9306H657.262V50.2466C657.262 48.3545 654.553 46.9761 651.691 46.9761C647.809 46.9761 645.355 49.1213 645.355 51.8279C645.355 59.1356 662.73 57.5017 662.73 69.3555C662.73 74.8689 658.437 79.6304 651.285 79.6304C649.027 79.6231 646.796 79.142 644.736 78.2182C642.676 77.2944 640.833 75.9484 639.326 74.2674L642.34 70.6336Z" fill="white"/>
<path d="M670.902 85.4521C672.907 85.4521 674.478 84.0211 675.451 81.723L676.626 78.9112L667.785 58.4214C667.429 57.6019 666.968 57.3989 666.151 57.3989H665.537V53.1586H668.449C670.544 53.1586 671.311 53.72 672.128 55.765L678.005 70.3253C678.372 71.3456 678.679 72.3866 678.924 73.4429H679.025C679.243 72.385 679.533 71.3433 679.894 70.3253L685.26 55.765C686.027 53.72 686.946 53.1586 689.041 53.1586H692.006V57.3989H691.339C690.525 57.3989 690.064 57.6019 689.705 58.4214L679.486 83.6627C677.902 87.6474 674.784 89.745 671.158 89.745C670.026 89.7417 668.906 89.5141 667.862 89.0753C666.819 88.6366 665.872 87.9954 665.078 87.1888L667.121 83.6126C667.121 83.6627 668.704 85.4521 670.902 85.4521Z" fill="white"/>
<path d="M696.958 48.3119C696.958 47.545 696.55 47.1866 695.835 47.1866H693.74V42.9388H698.645C700.943 42.9388 701.903 43.9087 701.903 46.2092V73.6484C701.903 74.4153 702.311 74.7736 703.028 74.7736H705.12V79.0139H700.229C697.93 79.0139 696.971 78.0416 696.971 75.7435L696.958 48.3119Z" fill="white"/>
<path d="M712.428 58.5242C712.428 57.7573 712.02 57.3989 711.303 57.3989H709.208V53.1586H714.065C716.363 53.1586 717.323 54.1285 717.323 56.4165V73.6484C717.323 74.4153 717.731 74.7736 718.448 74.7736H720.543V79.0139H715.699C713.398 79.0139 712.441 78.0416 712.441 75.7435L712.428 58.5242ZM712.531 42.9388H716.974V48.0988H712.531V42.9388Z" fill="white"/>
<path d="M726.831 58.5242C726.831 57.7573 726.422 57.3989 725.705 57.3989H723.61V53.1586H728.465C730.815 53.1586 731.785 54.1285 731.785 56.3263V68.5886C731.785 72.1673 732.502 75.0268 736.589 75.0268C741.905 75.0268 745.02 70.378 745.02 65.268V53.1586H749.977V73.6484C749.977 74.4153 750.385 74.7736 751.102 74.7736H753.195V79.0139H748.433C746.238 79.0139 745.163 77.9915 745.163 76.152V75.1821C745.163 74.3626 745.215 73.701 745.215 73.701H745.113C744.05 76.2547 740.729 79.638 735.62 79.638C729.793 79.638 726.831 76.573 726.831 69.7264V58.5242Z" fill="white"/>
<path d="M758.961 71.7588C758.961 71.7588 762.026 75.5906 766.78 75.5906C769.181 75.5906 771.276 74.5155 771.276 72.2676C771.276 67.6188 757.174 68.13 757.174 59.8023C757.174 54.8452 761.515 52.5346 766.78 52.5346C769.898 52.5346 775.261 53.6072 775.261 57.5468V59.9977H770.815V58.7196C770.815 57.1859 768.517 56.5218 766.933 56.5218C764.021 56.5218 762.129 57.5468 762.129 59.5893C762.129 64.4937 776.233 63.4211 776.233 72.057C776.233 76.6557 772.146 79.6179 766.728 79.6179C759.831 79.6179 756.408 75.0719 756.408 75.0719L758.961 71.7588Z" fill="white"/>
<path d="M573.626 64.4085L586.054 89.2638L608.992 89.3014L614.543 81.4874L573.626 64.4085Z" fill="white"/>
<path d="M565 67.1376L581.708 90.0733L608.992 90.1184L614.543 81.5376L565 67.1376Z" fill="white"/>
<path d="M585.034 39.1972L593.166 45.505L600.519 31.3958L598.02 29.7969L585.034 39.1972Z" fill="white"/>
<path d="M608.992 90.1184L585.034 39.1972L590.159 35.4882L618.036 76.1319L608.992 90.1184Z" fill="white"/>
<path d="M595.715 31.4659L611.32 44.0715L600.368 28L595.715 31.4659Z" fill="white"/>
</g>
<defs>
<filter id="filter0_i_2501_162" x="743" y="192" width="37" height="42" filterUnits="userSpaceOnUse" color-interpolation-filters="sRGB">
<feFlood flood-opacity="0" result="BackgroundImageFix"/>
<feBlend mode="normal" in="SourceGraphic" in2="BackgroundImageFix" result="shape"/>
<feColorMatrix in="SourceAlpha" type="matrix" values="0 0 0 0 0 0 0 0 0 0 0 0 0 0 0 0 0 0 127 0" result="hardAlpha"/>
<feOffset dy="4"/>
<feGaussianBlur stdDeviation="2"/>
<feComposite in2="hardAlpha" operator="arithmetic" k2="-1" k3="1"/>
<feColorMatrix type="matrix" values="0 0 0 0 0 0 0 0 0 0 0 0 0 0 0 0 0 0 0.25 0"/>
<feBlend mode="normal" in2="shape" result="effect1_innerShadow_2501_162"/>
</filter>
<filter id="filter1_i_2501_162" x="565" y="28" width="211.233" height="63.1184" filterUnits="userSpaceOnUse" color-interpolation-filters="sRGB">
<feFlood flood-opacity="0" result="BackgroundImageFix"/>
<feBlend mode="normal" in="SourceGraphic" in2="BackgroundImageFix" result="shape"/>
<feColorMatrix in="SourceAlpha" type="matrix" values="0 0 0 0 0 0 0 0 0 0 0 0 0 0 0 0 0 0 127 0" result="hardAlpha"/>
<feOffset dy="1"/>
<feGaussianBlur stdDeviation="0.5"/>
<feComposite in2="hardAlpha" operator="arithmetic" k2="-1" k3="1"/>
<feColorMatrix type="matrix" values="0 0 0 0 0 0 0 0 0 0 0 0 0 0 0 0 0 0 0.25 0"/>
<feBlend mode="normal" in2="shape" result="effect1_innerShadow_2501_162"/>
</filter>
<linearGradient id="paint0_linear_2501_162" x1="748.636" y1="212.073" x2="760.351" y2="212.073" gradientUnits="userSpaceOnUse">
<stop offset="0.2028" stop-color="white"/>
<stop offset="0.8722" stop-opacity="0.5"/>
</linearGradient>
<linearGradient id="paint1_linear_2501_162" x1="776.459" y1="204.426" x2="762.568" y2="204.426" gradientUnits="userSpaceOnUse">
<stop stop-color="white"/>
<stop offset="0.03" stop-color="#F2F0F4"/>
<stop offset="1"/>
</linearGradient>
<linearGradient id="paint2_linear_2501_162" x1="765.811" y1="204.387" x2="748.49" y2="204.387" gradientUnits="userSpaceOnUse">
<stop stop-color="white"/>
<stop offset="0.03" stop-color="#F2F0F4"/>
<stop offset="1"/>
</linearGradient>
<clipPath id="clip0_2501_162">
<rect width="37" height="38" fill="white" transform="translate(743 192)"/>
</clipPath>
<clipPath id="clip1_2501_162">
<rect width="318" height="93" fill="white" transform="translate(40 72)"/>
</clipPath>
</defs>
</svg>
